# xmcd CD database file
#
# Track frame offsets:
#	150
#	27295
#	57637
#	72795
#	92850
#	99090
#	122752
#	139290
#	149387
#	169145
#
# Disc length: 2652 seconds
#
# Revision: 0
# Processed by: cddbd v1.5.1PL0 Copyright (c) Steve Scherf et al.
# Submitted via: CDex 1.51
#
DISCID=8f0a5a0a
DTITLE=Mahavishnu Orchestra and John McLaughlin - Inner Worlds 
DYEAR=1975
DGENRE=Jazz
TTITLE0=Mahavishnu Orchestra and John McLaughlin - All In The Family
TTITLE1=Mahavishnu Orchestra and John McLaughlin - Miles Out
TTITLE2=Mahavishnu Orchestra and John McLaughlin - In My Life
TTITLE3=Mahavishnu Orchestra and John McLaughlin - Gita
TTITLE4=Mahavishnu Orchestra and John McLaughlin - Morning Calls
TTITLE5=Mahavishnu Orchestra and John McLaughlin - The Way Of The Pilgrim
TTITLE6=Mahavishnu Orchestra and John McLaughlin - River Of My Heart
TTITLE7=Mahavishnu Orchestra and John McLaughlin - Planetary Citizen
TTITLE8=Mahavishnu Orchestra and John McLaughlin - Lotus Feet
TTITLE9=Mahavishnu Orchestra and John McLaughlin - Inner Worlds Part 1 and 2
EXTD=YEAR: 1975
EXTT0=
EXTT1=
EXTT2=
EXTT3=
EXTT4=
EXTT5=
EXTT6=
EXTT7=
EXTT8=
EXTT9=
PLAYORDER=
